# xmcd CD database file
#
# Track frame offsets:
#	150
#	56355
#	126939
#	173209
#	222823
#
# Disc length: 4349 seconds
#
# Revision: 7
# Processed by: cddbd v1.5.2PL0 Copyright (c) Steve Scherf et al.
# Submitted via: CDex 1.51
#
DISCID=4110fb05
DTITLE=FELA - THE JAZZ SIDE OF FELA  CD 1
DYEAR=1970
DGENRE=Jazz
TTITLE0=J.j.d
TTITLE1=Roforofo fight
TTITLE2=Sorrow tears and blood
TTITLE3=Water no get enemy
TTITLE4=Just like that
EXTD=YEAR: 1970
EXTT0=
EXTT1=
EXTT2=
EXTT3=
EXTT4=
PLAYORDER=
